<?xml version="1.0" encoding="UTF-8"?><!DOCTYPE svg PUBLIC "-//W3C//DTD SVG 1.1//EN" "http://www.w3.org/Graphics/SVG/1.1/DTD/svg11.dtd"><svg xmlns="http://www.w3.org/2000/svg" xmlns:xlink="http://www.w3.org/1999/xlink" version="1.1" width="24" height="24" viewBox="0 0 24 24"><path d="M1,4L0,5V19L1,20H23L24,19V5L23,4L1,4M7.5,9.5C8.88,9.5 10,10.62 10,12C10,13.38 8.88,14.5 7.5,14.5C6.12,14.5 5,13.38 5,12C5,10.62 6.12,9.5 7.5,9.5 M7.5,10.5C6.67,10.5 6,11.17 6,12C6,12.83 6.67,13.5 7.5,13.5C8.33,13.5 9,12.83 9,12C9,11.17 8.33,10.5 7.5,10.5 M16.5,9.5C17.88,9.5 19,10.62 19,12C19,13.38 17.88,14.5 16.5,14.5C15.12,14.5 14,13.38 14,12C14,10.62 15.12,9.5 16.5,9.5 M16.5,10.5C15.67,10.5 15,11.17 15,12C15,12.83 15.67,13.5 16.5,13.5C17.33,13.5 18,12.83 18,12C18,11.17 17.33,10.5 16.5,10.5 Z" /></svg>