<?xml version="1.0" encoding="UTF-8"?><!DOCTYPE svg PUBLIC "-//W3C//DTD SVG 1.1//EN" "http://www.w3.org/Graphics/SVG/1.1/DTD/svg11.dtd"><svg xmlns="http://www.w3.org/2000/svg" xmlns:xlink="http://www.w3.org/1999/xlink" version="1.1" width="24" height="24" viewBox="0 0 24 24"><path d="M12,4C4,4 0,6 0,7C0,8 4,10 12,10C20,10 24,8 24,7C24,6 20,4 12,4 M0,8V17C0,18 4,20 12,20C20,20 24,18 24,17V8C24,9 20,11 12,11C4,11 0,9 0,8 M12,11.5C14.2,11.5 16,13.3 16,15.5C16,17.7 14.2,19.5 12,19.5C9.8,19.5 8,17.7 8,15.5C8,13.3 9.8,11.5 12,11.5M12,12.5C10.34,12.5 9,13.84 9,15.5C9,17.16 10.34,18.5 12,18.5C13.66,18.5 15,17.16 15,15.5C15,13.84 13.66,12.5 12,12.5Z" /></svg>